<svg width="24" height="25" viewBox="0 0 24 25" fill="none" xmlns="http://www.w3.org/2000/svg">
<path d="M23.6496 12.5173C23.6496 11.528 23.5693 10.806 23.3956 10.0574H12.0984V14.5227H18.7296C18.596 15.6324 17.874 17.3036 16.2697 18.4265L16.2472 18.576L19.8191 21.3432L20.0666 21.3679C22.3393 19.2689 23.6496 16.1805 23.6496 12.5173Z" fill="#4285F4"/>
<path d="M12.0984 24.2823C15.3472 24.2823 18.0745 23.2127 20.0666 21.3678L16.2697 18.4265C15.2536 19.1351 13.8899 19.6297 12.0984 19.6297C8.91654 19.6297 6.21594 17.5308 5.25325 14.6296L5.11214 14.6416L1.39798 17.516L1.3494 17.6511C3.32805 21.5816 7.39236 24.2823 12.0984 24.2823Z" fill="#34A853"/>
<path d="M5.25326 14.6297C4.99924 13.881 4.85223 13.0788 4.85223 12.2499C4.85223 11.421 4.99924 10.6188 5.23989 9.87015L5.23316 9.7107L1.47245 6.7901L1.34941 6.84863C0.533913 8.47971 0.065979 10.3114 0.065979 12.2499C0.065979 14.1885 0.533913 16.02 1.34941 17.6511L5.25326 14.6297Z" fill="#FBBC05"/>
<path d="M12.0988 4.87005C14.3582 4.87005 15.8823 5.84601 16.7513 6.6616L20.1471 3.34597C18.0616 1.40741 15.3475 0.217529 12.0988 0.217529C7.39274 0.217529 3.32843 2.91813 1.34978 6.8487L5.24026 9.87023C6.21631 6.96907 8.91691 4.87005 12.0988 4.87005Z" fill="#EB4335"/>
</svg>
