<svg width="375" height="69" viewBox="0 0 375 69" fill="none" xmlns="http://www.w3.org/2000/svg">
<path d="M362.975 69C315.547 69 287.443 45.2352 287.143 44.9615C230.946 -3.02435 196.497 6.12699 148.829 18.8111C136.186 22.1744 123.1 25.655 108.178 28.5751C35.2487 42.8626 -0.640152 1.30363 -1 0.873435L-0.112374 0C0.23548 0.417155 35.7405 41.4417 107.95 27.2976C122.848 24.3775 135.898 20.9099 148.529 17.5466C196.533 4.78427 231.21 -4.43224 287.874 43.9447C288.222 44.2445 322.324 73.0542 378.88 66.8099L379 68.1005C373.446 68.7262 368.097 69 362.975 69Z" fill="#85C4FE"/>
</svg>
